<svg width="40" height="40" viewBox="0 0 40 40" fill="none" xmlns="http://www.w3.org/2000/svg">
<path d="M30.0833 6C29.0833 5 29.8333 2 31.5213 2C33.2093 2 33.0833 4 32.0833 4C31.0833 4 31.0833 6 31.0833 7C31.0833 8 30.0833 6 30.0833 6ZM34.2663 7.72C33.2663 6.72 34.0163 3.72 35.7043 3.72C37.3923 3.72 37.2663 5.72 36.2663 5.72C35.2663 5.72 35.2663 7.72 35.2663 8.72C35.2663 9.72 34.2663 7.72 34.2663 7.72Z" fill="#AA8DD8"/>
<path d="M7.89122 34.856C7.70222 35.664 6.66422 37.136 5.85922 36.947C5.05322 36.757 4.78222 34.976 4.97122 34.17C5.16022 33.362 5.96922 32.863 6.77522 33.053C7.58022 33.243 8.08122 34.05 7.89122 34.856ZM13.3252 35.505C13.3222 36.335 12.6442 38.003 11.8162 38C10.9882 37.996 10.3222 36.323 10.3252 35.494C10.3282 34.665 11.0022 33.997 11.8302 33.999C12.6582 34.003 13.3282 34.676 13.3252 35.505ZM18.5962 33.059C18.9222 33.823 18.9612 35.622 18.2002 35.949C17.4372 36.273 16.1632 35.002 15.8372 34.239C15.5122 33.477 15.8652 32.596 16.6262 32.269C17.3882 31.944 18.2692 32.296 18.5962 33.059ZM23.6272 22.019C24.4392 22.191 25.9352 23.192 25.7662 24.002C25.5932 24.812 23.8212 25.126 23.0092 24.955C22.1982 24.784 21.6802 23.988 21.8492 23.178C22.0212 22.368 22.8142 21.848 23.6272 22.019ZM25.6642 17.019C26.4762 17.191 27.9722 18.192 27.8032 19.002C27.6302 19.812 25.8582 20.126 25.0462 19.955C24.2352 19.784 23.7172 18.988 23.8862 18.178C24.0582 17.368 24.8522 16.848 25.6642 17.019Z" fill="#744EAA"/>
<path d="M10.2542 36C7.4232 36 5.3282 35.123 4.9882 34.973C2.7172 33.963 1.6952 31.304 2.7042 29.034C3.7032 26.784 6.3202 25.759 8.5762 26.72C8.7092 26.77 10.3692 27.369 11.9192 26.648C13.7702 25.787 14.9142 23.339 15.5472 21.439C15.6912 21.009 15.9322 20.165 16.2332 19.123C18.0992 12.652 19.0652 10.838 20.2162 9.30299C23.9272 4.35199 29.8082 4.00699 32.6992 4.58699C35.1362 5.07399 36.7172 7.44499 36.2292 9.88199C35.7412 12.32 33.3692 13.902 30.9332 13.412C30.7712 13.386 28.7292 13.106 27.5092 14.581C26.8662 15.868 25.4292 19.709 24.8792 21.615C24.5332 22.814 24.2502 23.786 24.0852 24.282C22.3122 29.599 19.4192 33.175 15.4822 34.911C13.6302 35.729 11.8282 36 10.2542 36Z" fill="#9266CC"/>
<path d="M30.8164 8C30.2641 8 29.8164 7.55228 29.8164 7C29.8164 6.44772 30.2641 6 30.8164 6C31.3687 6 31.8164 6.44772 31.8164 7C31.8164 7.55228 31.3687 8 30.8164 8Z" fill="#202024"/>
<path d="M6.57537 34.964C6.66437 34.964 6.75537 34.952 6.84437 34.928C7.37637 34.78 7.68837 34.229 7.54037 33.697C6.78337 30.975 8.31037 29.155 8.32537 29.137C8.68437 28.718 8.63737 28.086 8.21837 27.727C7.80037 27.368 7.16737 27.415 6.80837 27.834C6.71637 27.941 4.57437 30.494 5.61337 34.231C5.73537 34.674 6.13837 34.964 6.57537 34.964ZM13.7744 34.401C14.0194 34.401 14.2644 34.312 14.4584 34.131C14.8614 33.753 14.8824 33.12 14.5054 32.717C13.0204 31.13 13.0524 28.524 13.0534 28.497C13.0694 27.945 12.6344 27.485 12.0814 27.469C11.5394 27.464 11.0684 27.888 11.0534 28.441C11.0494 28.58 10.9804 31.878 13.0444 34.085C13.2414 34.295 13.5084 34.401 13.7744 34.401ZM22.3164 25.705C22.7964 25.705 23.2204 25.358 23.3014 24.868C23.3914 24.324 23.0234 23.808 22.4784 23.719C19.4044 23.209 17.7044 21.342 17.6874 21.323C17.3224 20.913 16.6894 20.874 16.2784 21.239C15.8664 21.604 15.8254 22.232 16.1874 22.645C16.2744 22.744 18.3434 25.06 22.1514 25.691C22.2074 25.701 22.2624 25.705 22.3164 25.705ZM19.3954 30.562C19.8204 30.562 20.2144 30.29 20.3494 29.864C20.5154 29.338 20.2234 28.775 19.6974 28.609C17.0044 27.756 15.8174 25.779 15.8054 25.759C15.5254 25.282 14.9134 25.122 14.4374 25.402C13.9604 25.681 13.8014 26.295 14.0804 26.77C14.1434 26.878 15.6754 29.433 19.0934 30.514C19.1944 30.547 19.2964 30.562 19.3954 30.562ZM24.0144 19.892C24.5104 19.892 24.9414 19.523 25.0054 19.017C25.0744 18.469 24.6864 17.969 24.1384 17.899C21.4494 17.559 19.4814 15.928 19.4624 15.911C19.0404 15.557 18.4094 15.608 18.0544 16.03C17.6984 16.451 17.7494 17.08 18.1694 17.437C18.2664 17.52 20.5894 19.466 23.8874 19.883C23.9304 19.889 23.9724 19.892 24.0144 19.892ZM25.8354 15.125C26.2604 15.125 26.6544 14.852 26.7894 14.424C26.9544 13.897 26.6624 13.336 26.1354 13.17C23.0054 12.187 21.8824 10.478 21.8364 10.406C21.5414 9.94397 20.9254 9.80097 20.4614 10.094C19.9964 10.386 19.8504 10.993 20.1374 11.46C20.1974 11.557 21.6434 13.856 25.5364 15.079C25.6354 15.11 25.7364 15.125 25.8354 15.125Z" fill="#744EAA"/>
</svg>
