<svg width="40" height="40" viewBox="0 0 40 40" fill="none" xmlns="http://www.w3.org/2000/svg">
<path d="M9 13.92C9 20.359 14 21.359 14 27.36C14 30.458 17.123 30.719 19.5 30.719C21.553 30.719 26.086 29.94 26.086 27.358C26.086 21.36 31 20.36 31 13.92C31 7.889 25.715 3 19.917 3C14.117 3 9 7.889 9 13.92Z" fill="#FFD983"/>
<path d="M15.833 35.36C15.833 36.188 18.067 37.86 20 37.86C21.933 37.86 24.167 36.188 24.167 35.36C24.167 34.532 21.934 34.86 20 34.86C18.067 34.86 15.833 34.532 15.833 35.36Z" fill="#CCD6DD"/>
<path d="M15.293 13.153C15.684 12.762 16.316 12.762 16.707 13.153L20 16.446L23.293 13.153C23.684 12.762 24.316 12.762 24.707 13.153C25.098 13.544 25.098 14.176 24.707 14.567L21 18.274V28.86C21 29.413 20.552 29.86 20 29.86C19.448 29.86 19 29.413 19 28.86V18.274L15.293 14.567C14.902 14.176 14.902 13.544 15.293 13.153Z" fill="#FFCC4D"/>
<path d="M14 33.86C14 34.964 14.896 35.86 16 35.86H24C25.104 35.86 26 34.964 26 33.86V27.86H14V33.86Z" fill="#99AAB5"/>
<path d="M26.0009 34.86C26.4809 34.86 26.9049 34.513 26.9859 34.024C27.0769 33.48 26.7089 32.964 26.1639 32.874L14.1639 30.874C13.6199 30.776 13.1039 31.151 13.0139 31.696C12.9229 32.24 13.2909 32.756 13.8359 32.846L25.8359 34.846C25.8909 34.856 25.9469 34.86 26.0009 34.86ZM26.0009 30.86C26.4809 30.86 26.9049 30.513 26.9859 30.024C27.0769 29.48 26.7089 28.964 26.1639 28.874L14.1639 26.874C13.6199 26.777 13.1039 27.151 13.0139 27.696C12.9229 28.24 13.2909 28.756 13.8359 28.846L25.8359 30.846C25.8909 30.856 25.9469 30.86 26.0009 30.86Z" fill="#CCD6DD"/>
</svg>
