<svg width="40" height="40" viewBox="0 0 40 40" fill="none" xmlns="http://www.w3.org/2000/svg">
<path d="M2 34C2 36.209 3.791 38 6 38H34C36.209 38 38 36.209 38 34V6C38 3.791 36.209 2 34 2H6C3.791 2 2 3.791 2 6V34Z" fill="#77B255"/>
<path d="M8.71997 8.36202C9.87597 7.61102 11.424 7.94002 12.178 9.09802L23.064 25.877L28.093 21.227C29.107 20.289 30.689 20.352 31.626 21.365C32.563 22.379 32.501 23.961 31.487 24.898L24.278 31.564C23.798 32.009 23.188 32.229 22.582 32.229C21.909 32.229 21.048 31.947 20.483 31.09C20.151 30.584 7.98297 11.82 7.98297 11.82C7.23197 10.661 7.56197 9.11302 8.71997 8.36202Z" fill="white"/>
</svg>
