<svg width="40" height="40" viewBox="0 0 40 40" fill="none" xmlns="http://www.w3.org/2000/svg">
<path d="M2 14.875C2 11.009 5.134 7.875 9 7.875C10.167 7.875 11.265 8.165 12.232 8.669C14.314 5.842 17.657 4 21.437 4C26.569 4 30.912 7.38 32.36 12.036C35.018 12.653 37 15.03 37 17.875C37 20.854 34.826 23.32 31.979 23.788C31.763 27.737 28.502 30.875 24.5 30.875C22.324 30.875 20.37 29.942 19 28.462C17.63 29.942 15.677 30.875 13.5 30.875C9.357 30.875 6 27.518 6 23.375C6 22.665 6.105 21.981 6.289 21.33C3.77 20.271 2 17.78 2 14.875Z" fill="#85C8F8"/>
<path d="M33 36.875C31.3431 36.875 30 35.5319 30 33.875C30 32.2181 31.3431 30.875 33 30.875C34.6569 30.875 36 32.2181 36 33.875C36 35.5319 34.6569 36.875 33 36.875Z" fill="#85C8F8"/>
</svg>
